<svg width="48" height="48" viewBox="0 0 48 48" fill="none" xmlns="http://www.w3.org/2000/svg">
  <circle cx="24" cy="24" r="24" fill="#F3BA2F"/>
  <path d="M18 14C16.9 14 16 14.9 16 16V18H12C10.9 18 10 18.9 10 20V32C10 33.1 10.9 34 12 34H36C37.1 34 38 33.1 38 32V20C38 18.9 37.1 18 36 18H32V16C32 14.9 31.1 14 30 14H18ZM18 16H30V18H18V16ZM12 20H36V32H12V20ZM14 22V30H34V22H14ZM24 24C25.66 24 27 25.34 27 27C27 28.66 25.66 30 24 30C22.34 30 21 28.66 21 27C21 25.34 22.34 24 24 24Z" fill="#000000"/>
</svg>